<mxfile host="app.diagrams.net" modified="2023-07-10T06:37:24.293Z" agent="Mozilla/5.0 (Windows NT 10.0; Win64; x64) AppleWebKit/537.36 (KHTML, like Gecko) Chrome/114.0.0.0 Safari/537.36" etag="1pJ9DRZ4UPTjedn7bhCU" version="21.3.8" type="github">
  <diagram id="C5RBs43oDa-KdzZeNtuy" name="Page-1">
    <mxGraphModel dx="3054" dy="1964" grid="1" gridSize="10" guides="1" tooltips="1" connect="1" arrows="1" fold="1" page="1" pageScale="1" pageWidth="827" pageHeight="1169" math="0" shadow="0">
      <root>
        <mxCell id="WIyWlLk6GJQsqaUBKTNV-0" />
        <mxCell id="WIyWlLk6GJQsqaUBKTNV-1" parent="WIyWlLk6GJQsqaUBKTNV-0" />
        <mxCell id="WIyWlLk6GJQsqaUBKTNV-2" value="" style="rounded=0;html=1;jettySize=auto;orthogonalLoop=1;fontSize=11;endArrow=block;endFill=0;endSize=8;strokeWidth=1;shadow=0;labelBackgroundColor=none;edgeStyle=orthogonalEdgeStyle;" parent="WIyWlLk6GJQsqaUBKTNV-1" source="WIyWlLk6GJQsqaUBKTNV-3" edge="1">
          <mxGeometry relative="1" as="geometry">
            <mxPoint x="414" y="180" as="targetPoint" />
          </mxGeometry>
        </mxCell>
        <mxCell id="WIyWlLk6GJQsqaUBKTNV-3" value="主页面" style="rounded=1;whiteSpace=wrap;html=1;fontSize=12;glass=0;strokeWidth=1;shadow=0;" parent="WIyWlLk6GJQsqaUBKTNV-1" vertex="1">
          <mxGeometry x="354" y="90" width="120" height="40" as="geometry" />
        </mxCell>
        <mxCell id="WIyWlLk6GJQsqaUBKTNV-4" value="Yes" style="rounded=0;html=1;jettySize=auto;orthogonalLoop=1;fontSize=11;endArrow=block;endFill=0;endSize=8;strokeWidth=1;shadow=0;labelBackgroundColor=none;edgeStyle=orthogonalEdgeStyle;" parent="WIyWlLk6GJQsqaUBKTNV-1" target="WIyWlLk6GJQsqaUBKTNV-10" edge="1">
          <mxGeometry y="20" relative="1" as="geometry">
            <mxPoint as="offset" />
            <mxPoint x="414" y="260" as="sourcePoint" />
          </mxGeometry>
        </mxCell>
        <mxCell id="WIyWlLk6GJQsqaUBKTNV-8" value="No" style="rounded=0;html=1;jettySize=auto;orthogonalLoop=1;fontSize=11;endArrow=block;endFill=0;endSize=8;strokeWidth=1;shadow=0;labelBackgroundColor=none;edgeStyle=orthogonalEdgeStyle;" parent="WIyWlLk6GJQsqaUBKTNV-1" source="WIyWlLk6GJQsqaUBKTNV-10" target="WIyWlLk6GJQsqaUBKTNV-11" edge="1">
          <mxGeometry x="0.3333" y="20" relative="1" as="geometry">
            <mxPoint as="offset" />
          </mxGeometry>
        </mxCell>
        <mxCell id="WIyWlLk6GJQsqaUBKTNV-9" value="Yes" style="edgeStyle=orthogonalEdgeStyle;rounded=0;html=1;jettySize=auto;orthogonalLoop=1;fontSize=11;endArrow=block;endFill=0;endSize=8;strokeWidth=1;shadow=0;labelBackgroundColor=none;" parent="WIyWlLk6GJQsqaUBKTNV-1" source="WIyWlLk6GJQsqaUBKTNV-10" target="WIyWlLk6GJQsqaUBKTNV-12" edge="1">
          <mxGeometry y="10" relative="1" as="geometry">
            <mxPoint as="offset" />
          </mxGeometry>
        </mxCell>
        <mxCell id="UJGWhKWExuoxYXBUKeyZ-4" style="edgeStyle=orthogonalEdgeStyle;rounded=0;orthogonalLoop=1;jettySize=auto;html=1;" edge="1" parent="WIyWlLk6GJQsqaUBKTNV-1" source="WIyWlLk6GJQsqaUBKTNV-10" target="UJGWhKWExuoxYXBUKeyZ-3">
          <mxGeometry relative="1" as="geometry" />
        </mxCell>
        <mxCell id="WIyWlLk6GJQsqaUBKTNV-10" value="选择学习模块" style="rhombus;whiteSpace=wrap;html=1;shadow=0;fontFamily=Helvetica;fontSize=12;align=center;strokeWidth=1;spacing=6;spacingTop=-4;" parent="WIyWlLk6GJQsqaUBKTNV-1" vertex="1">
          <mxGeometry x="364" y="180" width="100" height="80" as="geometry" />
        </mxCell>
        <mxCell id="WIyWlLk6GJQsqaUBKTNV-11" value="工艺拆解学习" style="rounded=1;whiteSpace=wrap;html=1;fontSize=12;glass=0;strokeWidth=1;shadow=0;" parent="WIyWlLk6GJQsqaUBKTNV-1" vertex="1">
          <mxGeometry x="354" y="320" width="120" height="40" as="geometry" />
        </mxCell>
        <mxCell id="WIyWlLk6GJQsqaUBKTNV-12" value="互动设计成型" style="rounded=1;whiteSpace=wrap;html=1;fontSize=12;glass=0;strokeWidth=1;shadow=0;" parent="WIyWlLk6GJQsqaUBKTNV-1" vertex="1">
          <mxGeometry x="827" y="320" width="120" height="40" as="geometry" />
        </mxCell>
        <mxCell id="UJGWhKWExuoxYXBUKeyZ-1" style="edgeStyle=orthogonalEdgeStyle;rounded=0;orthogonalLoop=1;jettySize=auto;html=1;" edge="1" parent="WIyWlLk6GJQsqaUBKTNV-1" source="UJGWhKWExuoxYXBUKeyZ-0" target="WIyWlLk6GJQsqaUBKTNV-3">
          <mxGeometry relative="1" as="geometry" />
        </mxCell>
        <mxCell id="UJGWhKWExuoxYXBUKeyZ-0" value="加载页面" style="rounded=1;whiteSpace=wrap;html=1;fontSize=12;glass=0;strokeWidth=1;shadow=0;" vertex="1" parent="WIyWlLk6GJQsqaUBKTNV-1">
          <mxGeometry x="354" y="-10" width="120" height="40" as="geometry" />
        </mxCell>
        <mxCell id="UJGWhKWExuoxYXBUKeyZ-77" value="" style="edgeStyle=orthogonalEdgeStyle;rounded=0;orthogonalLoop=1;jettySize=auto;html=1;" edge="1" parent="WIyWlLk6GJQsqaUBKTNV-1" source="UJGWhKWExuoxYXBUKeyZ-3" target="UJGWhKWExuoxYXBUKeyZ-5">
          <mxGeometry relative="1" as="geometry" />
        </mxCell>
        <mxCell id="UJGWhKWExuoxYXBUKeyZ-3" value="背景知识" style="rounded=1;whiteSpace=wrap;html=1;fontSize=12;glass=0;strokeWidth=1;shadow=0;" vertex="1" parent="WIyWlLk6GJQsqaUBKTNV-1">
          <mxGeometry x="-120" y="320" width="120" height="40" as="geometry" />
        </mxCell>
        <mxCell id="UJGWhKWExuoxYXBUKeyZ-8" style="edgeStyle=orthogonalEdgeStyle;rounded=0;orthogonalLoop=1;jettySize=auto;html=1;exitX=0;exitY=0.5;exitDx=0;exitDy=0;" edge="1" parent="WIyWlLk6GJQsqaUBKTNV-1" source="UJGWhKWExuoxYXBUKeyZ-5" target="UJGWhKWExuoxYXBUKeyZ-6">
          <mxGeometry relative="1" as="geometry" />
        </mxCell>
        <mxCell id="UJGWhKWExuoxYXBUKeyZ-9" style="edgeStyle=orthogonalEdgeStyle;rounded=0;orthogonalLoop=1;jettySize=auto;html=1;exitX=1;exitY=0.5;exitDx=0;exitDy=0;" edge="1" parent="WIyWlLk6GJQsqaUBKTNV-1" source="UJGWhKWExuoxYXBUKeyZ-5" target="UJGWhKWExuoxYXBUKeyZ-7">
          <mxGeometry relative="1" as="geometry" />
        </mxCell>
        <mxCell id="UJGWhKWExuoxYXBUKeyZ-5" value="选择样本模块" style="rhombus;whiteSpace=wrap;html=1;shadow=0;fontFamily=Helvetica;fontSize=12;align=center;strokeWidth=1;spacing=6;spacingTop=-4;" vertex="1" parent="WIyWlLk6GJQsqaUBKTNV-1">
          <mxGeometry x="-110" y="400" width="100" height="80" as="geometry" />
        </mxCell>
        <mxCell id="UJGWhKWExuoxYXBUKeyZ-78" style="edgeStyle=orthogonalEdgeStyle;rounded=0;orthogonalLoop=1;jettySize=auto;html=1;entryX=0;entryY=0.5;entryDx=0;entryDy=0;" edge="1" parent="WIyWlLk6GJQsqaUBKTNV-1" source="UJGWhKWExuoxYXBUKeyZ-6" target="UJGWhKWExuoxYXBUKeyZ-3">
          <mxGeometry relative="1" as="geometry">
            <mxPoint x="-1000" y="340" as="targetPoint" />
            <Array as="points">
              <mxPoint x="-960" y="580" />
              <mxPoint x="-960" y="340" />
            </Array>
          </mxGeometry>
        </mxCell>
        <mxCell id="UJGWhKWExuoxYXBUKeyZ-79" value="点击右下角的返回按钮" style="edgeLabel;html=1;align=center;verticalAlign=middle;resizable=0;points=[];" vertex="1" connectable="0" parent="UJGWhKWExuoxYXBUKeyZ-78">
          <mxGeometry x="-0.7746" y="-3" relative="1" as="geometry">
            <mxPoint y="-1" as="offset" />
          </mxGeometry>
        </mxCell>
        <mxCell id="UJGWhKWExuoxYXBUKeyZ-92" style="edgeStyle=orthogonalEdgeStyle;rounded=0;orthogonalLoop=1;jettySize=auto;html=1;exitX=0.5;exitY=1;exitDx=0;exitDy=0;" edge="1" parent="WIyWlLk6GJQsqaUBKTNV-1" source="UJGWhKWExuoxYXBUKeyZ-6" target="UJGWhKWExuoxYXBUKeyZ-10">
          <mxGeometry relative="1" as="geometry" />
        </mxCell>
        <mxCell id="UJGWhKWExuoxYXBUKeyZ-6" value="材料样本" style="rounded=1;whiteSpace=wrap;html=1;fontSize=12;glass=0;strokeWidth=1;shadow=0;" vertex="1" parent="WIyWlLk6GJQsqaUBKTNV-1">
          <mxGeometry x="-905.5" y="560" width="120" height="40" as="geometry" />
        </mxCell>
        <mxCell id="UJGWhKWExuoxYXBUKeyZ-7" value="工具样本" style="rounded=1;whiteSpace=wrap;html=1;fontSize=12;glass=0;strokeWidth=1;shadow=0;" vertex="1" parent="WIyWlLk6GJQsqaUBKTNV-1">
          <mxGeometry y="560" width="120" height="40" as="geometry" />
        </mxCell>
        <mxCell id="UJGWhKWExuoxYXBUKeyZ-17" style="edgeStyle=orthogonalEdgeStyle;rounded=0;orthogonalLoop=1;jettySize=auto;html=1;exitX=0.5;exitY=1;exitDx=0;exitDy=0;" edge="1" parent="WIyWlLk6GJQsqaUBKTNV-1" source="UJGWhKWExuoxYXBUKeyZ-10" target="UJGWhKWExuoxYXBUKeyZ-15">
          <mxGeometry relative="1" as="geometry" />
        </mxCell>
        <mxCell id="UJGWhKWExuoxYXBUKeyZ-18" style="edgeStyle=orthogonalEdgeStyle;rounded=0;orthogonalLoop=1;jettySize=auto;html=1;exitX=1;exitY=0.5;exitDx=0;exitDy=0;" edge="1" parent="WIyWlLk6GJQsqaUBKTNV-1" source="UJGWhKWExuoxYXBUKeyZ-10" target="UJGWhKWExuoxYXBUKeyZ-16">
          <mxGeometry relative="1" as="geometry" />
        </mxCell>
        <mxCell id="UJGWhKWExuoxYXBUKeyZ-19" style="edgeStyle=orthogonalEdgeStyle;rounded=0;orthogonalLoop=1;jettySize=auto;html=1;exitX=0;exitY=0.5;exitDx=0;exitDy=0;" edge="1" parent="WIyWlLk6GJQsqaUBKTNV-1" source="UJGWhKWExuoxYXBUKeyZ-10" target="UJGWhKWExuoxYXBUKeyZ-11">
          <mxGeometry relative="1" as="geometry" />
        </mxCell>
        <mxCell id="UJGWhKWExuoxYXBUKeyZ-10" value="点击右侧按钮" style="rhombus;whiteSpace=wrap;html=1;shadow=0;fontFamily=Helvetica;fontSize=12;align=center;strokeWidth=1;spacing=6;spacingTop=-4;" vertex="1" parent="WIyWlLk6GJQsqaUBKTNV-1">
          <mxGeometry x="-895.5" y="710" width="100" height="80" as="geometry" />
        </mxCell>
        <mxCell id="UJGWhKWExuoxYXBUKeyZ-65" style="edgeStyle=orthogonalEdgeStyle;rounded=0;orthogonalLoop=1;jettySize=auto;html=1;entryX=0.5;entryY=0;entryDx=0;entryDy=0;" edge="1" parent="WIyWlLk6GJQsqaUBKTNV-1" source="UJGWhKWExuoxYXBUKeyZ-11" target="UJGWhKWExuoxYXBUKeyZ-60">
          <mxGeometry relative="1" as="geometry" />
        </mxCell>
        <mxCell id="UJGWhKWExuoxYXBUKeyZ-11" value="材种浏览方式" style="rounded=1;whiteSpace=wrap;html=1;fontSize=12;glass=0;strokeWidth=1;shadow=0;" vertex="1" parent="WIyWlLk6GJQsqaUBKTNV-1">
          <mxGeometry x="-1198.5" y="820" width="120" height="40" as="geometry" />
        </mxCell>
        <mxCell id="UJGWhKWExuoxYXBUKeyZ-76" style="edgeStyle=orthogonalEdgeStyle;rounded=0;orthogonalLoop=1;jettySize=auto;html=1;" edge="1" parent="WIyWlLk6GJQsqaUBKTNV-1" source="UJGWhKWExuoxYXBUKeyZ-15" target="UJGWhKWExuoxYXBUKeyZ-66">
          <mxGeometry relative="1" as="geometry" />
        </mxCell>
        <mxCell id="UJGWhKWExuoxYXBUKeyZ-15" value="产品浏览方式" style="rounded=1;whiteSpace=wrap;html=1;fontSize=12;glass=0;strokeWidth=1;shadow=0;" vertex="1" parent="WIyWlLk6GJQsqaUBKTNV-1">
          <mxGeometry x="-905.5" y="820" width="120" height="40" as="geometry" />
        </mxCell>
        <mxCell id="UJGWhKWExuoxYXBUKeyZ-75" style="edgeStyle=orthogonalEdgeStyle;rounded=0;orthogonalLoop=1;jettySize=auto;html=1;" edge="1" parent="WIyWlLk6GJQsqaUBKTNV-1" source="UJGWhKWExuoxYXBUKeyZ-16" target="UJGWhKWExuoxYXBUKeyZ-71">
          <mxGeometry relative="1" as="geometry" />
        </mxCell>
        <mxCell id="UJGWhKWExuoxYXBUKeyZ-16" value="制材过程浏览方式" style="rounded=1;whiteSpace=wrap;html=1;fontSize=12;glass=0;strokeWidth=1;shadow=0;" vertex="1" parent="WIyWlLk6GJQsqaUBKTNV-1">
          <mxGeometry x="-615.5" y="820" width="120" height="40" as="geometry" />
        </mxCell>
        <mxCell id="UJGWhKWExuoxYXBUKeyZ-34" value="" style="endArrow=classic;startArrow=classic;html=1;rounded=0;entryX=0;entryY=0.5;entryDx=0;entryDy=0;exitX=1;exitY=0.5;exitDx=0;exitDy=0;" edge="1" parent="WIyWlLk6GJQsqaUBKTNV-1" source="UJGWhKWExuoxYXBUKeyZ-11" target="UJGWhKWExuoxYXBUKeyZ-15">
          <mxGeometry width="50" height="50" relative="1" as="geometry">
            <mxPoint x="-985.5" y="865" as="sourcePoint" />
            <mxPoint x="-935.5" y="815" as="targetPoint" />
          </mxGeometry>
        </mxCell>
        <mxCell id="UJGWhKWExuoxYXBUKeyZ-38" value="点击右侧按钮切换" style="edgeLabel;html=1;align=center;verticalAlign=middle;resizable=0;points=[];" vertex="1" connectable="0" parent="UJGWhKWExuoxYXBUKeyZ-34">
          <mxGeometry x="0.0927" y="-1" relative="1" as="geometry">
            <mxPoint as="offset" />
          </mxGeometry>
        </mxCell>
        <mxCell id="UJGWhKWExuoxYXBUKeyZ-39" value="" style="endArrow=classic;startArrow=classic;html=1;rounded=0;entryX=0;entryY=0.5;entryDx=0;entryDy=0;exitX=1;exitY=0.5;exitDx=0;exitDy=0;" edge="1" parent="WIyWlLk6GJQsqaUBKTNV-1">
          <mxGeometry width="50" height="50" relative="1" as="geometry">
            <mxPoint x="-785.5" y="839.63" as="sourcePoint" />
            <mxPoint x="-612.5" y="839.63" as="targetPoint" />
          </mxGeometry>
        </mxCell>
        <mxCell id="UJGWhKWExuoxYXBUKeyZ-40" value="点击右侧按钮切换" style="edgeLabel;html=1;align=center;verticalAlign=middle;resizable=0;points=[];" vertex="1" connectable="0" parent="UJGWhKWExuoxYXBUKeyZ-39">
          <mxGeometry x="0.0927" y="-1" relative="1" as="geometry">
            <mxPoint as="offset" />
          </mxGeometry>
        </mxCell>
        <mxCell id="UJGWhKWExuoxYXBUKeyZ-60" value="List" style="swimlane;fontStyle=0;childLayout=stackLayout;horizontal=1;startSize=30;horizontalStack=0;resizeParent=1;resizeParentMax=0;resizeLast=0;collapsible=1;marginBottom=0;whiteSpace=wrap;html=1;" vertex="1" parent="WIyWlLk6GJQsqaUBKTNV-1">
          <mxGeometry x="-1210" y="940" width="143" height="120" as="geometry" />
        </mxCell>
        <mxCell id="UJGWhKWExuoxYXBUKeyZ-61" value="&lt;div&gt;地图模式-真实材质高清图&lt;/div&gt;" style="text;strokeColor=none;fillColor=none;align=left;verticalAlign=middle;spacingLeft=4;spacingRight=4;overflow=hidden;points=[[0,0.5],[1,0.5]];portConstraint=eastwest;rotatable=0;whiteSpace=wrap;html=1;" vertex="1" parent="UJGWhKWExuoxYXBUKeyZ-60">
          <mxGeometry y="30" width="143" height="30" as="geometry" />
        </mxCell>
        <mxCell id="UJGWhKWExuoxYXBUKeyZ-62" value="&lt;div&gt;&lt;span style=&quot;font-family: 等线; font-size: 11.0625pt; background-color: initial;&quot;&gt;简短文字介绍&lt;/span&gt;&lt;br&gt;&lt;/div&gt;" style="text;strokeColor=none;fillColor=none;align=left;verticalAlign=middle;spacingLeft=4;spacingRight=4;overflow=hidden;points=[[0,0.5],[1,0.5]];portConstraint=eastwest;rotatable=0;whiteSpace=wrap;html=1;" vertex="1" parent="UJGWhKWExuoxYXBUKeyZ-60">
          <mxGeometry y="60" width="143" height="30" as="geometry" />
        </mxCell>
        <mxCell id="UJGWhKWExuoxYXBUKeyZ-63" value="&lt;div&gt;点击地图上的图片&lt;/div&gt;" style="text;strokeColor=none;fillColor=none;align=left;verticalAlign=middle;spacingLeft=4;spacingRight=4;overflow=hidden;points=[[0,0.5],[1,0.5]];portConstraint=eastwest;rotatable=0;whiteSpace=wrap;html=1;" vertex="1" parent="UJGWhKWExuoxYXBUKeyZ-60">
          <mxGeometry y="90" width="143" height="30" as="geometry" />
        </mxCell>
        <mxCell id="UJGWhKWExuoxYXBUKeyZ-66" value="List" style="swimlane;fontStyle=0;childLayout=stackLayout;horizontal=1;startSize=30;horizontalStack=0;resizeParent=1;resizeParentMax=0;resizeLast=0;collapsible=1;marginBottom=0;whiteSpace=wrap;html=1;" vertex="1" parent="WIyWlLk6GJQsqaUBKTNV-1">
          <mxGeometry x="-915.5" y="940" width="140" height="90" as="geometry" />
        </mxCell>
        <mxCell id="UJGWhKWExuoxYXBUKeyZ-67" value="&lt;div&gt;从产品中标注出材料种类&lt;/div&gt;" style="text;strokeColor=none;fillColor=none;align=left;verticalAlign=middle;spacingLeft=4;spacingRight=4;overflow=hidden;points=[[0,0.5],[1,0.5]];portConstraint=eastwest;rotatable=0;whiteSpace=wrap;html=1;" vertex="1" parent="UJGWhKWExuoxYXBUKeyZ-66">
          <mxGeometry y="30" width="140" height="30" as="geometry" />
        </mxCell>
        <mxCell id="UJGWhKWExuoxYXBUKeyZ-68" value="&lt;div&gt;点击图片&lt;/div&gt;" style="text;strokeColor=none;fillColor=none;align=left;verticalAlign=middle;spacingLeft=4;spacingRight=4;overflow=hidden;points=[[0,0.5],[1,0.5]];portConstraint=eastwest;rotatable=0;whiteSpace=wrap;html=1;" vertex="1" parent="UJGWhKWExuoxYXBUKeyZ-66">
          <mxGeometry y="60" width="140" height="30" as="geometry" />
        </mxCell>
        <mxCell id="UJGWhKWExuoxYXBUKeyZ-71" value="List" style="swimlane;fontStyle=0;childLayout=stackLayout;horizontal=1;startSize=30;horizontalStack=0;resizeParent=1;resizeParentMax=0;resizeLast=0;collapsible=1;marginBottom=0;whiteSpace=wrap;html=1;" vertex="1" parent="WIyWlLk6GJQsqaUBKTNV-1">
          <mxGeometry x="-625.5" y="940" width="140" height="120" as="geometry" />
        </mxCell>
        <mxCell id="UJGWhKWExuoxYXBUKeyZ-72" value="&lt;div&gt;制材过程，从树-原木-板材-净料&lt;/div&gt;" style="text;strokeColor=none;fillColor=none;align=left;verticalAlign=middle;spacingLeft=4;spacingRight=4;overflow=hidden;points=[[0,0.5],[1,0.5]];portConstraint=eastwest;rotatable=0;whiteSpace=wrap;html=1;" vertex="1" parent="UJGWhKWExuoxYXBUKeyZ-71">
          <mxGeometry y="30" width="140" height="30" as="geometry" />
        </mxCell>
        <mxCell id="UJGWhKWExuoxYXBUKeyZ-73" value="&lt;div&gt;极简风格的小动画&lt;/div&gt;" style="text;strokeColor=none;fillColor=none;align=left;verticalAlign=middle;spacingLeft=4;spacingRight=4;overflow=hidden;points=[[0,0.5],[1,0.5]];portConstraint=eastwest;rotatable=0;whiteSpace=wrap;html=1;" vertex="1" parent="UJGWhKWExuoxYXBUKeyZ-71">
          <mxGeometry y="60" width="140" height="30" as="geometry" />
        </mxCell>
        <mxCell id="UJGWhKWExuoxYXBUKeyZ-74" value="Item 3" style="text;strokeColor=none;fillColor=none;align=left;verticalAlign=middle;spacingLeft=4;spacingRight=4;overflow=hidden;points=[[0,0.5],[1,0.5]];portConstraint=eastwest;rotatable=0;whiteSpace=wrap;html=1;" vertex="1" parent="UJGWhKWExuoxYXBUKeyZ-71">
          <mxGeometry y="90" width="140" height="30" as="geometry" />
        </mxCell>
        <mxCell id="UJGWhKWExuoxYXBUKeyZ-90" style="edgeStyle=orthogonalEdgeStyle;rounded=0;orthogonalLoop=1;jettySize=auto;html=1;exitX=0;exitY=0.5;exitDx=0;exitDy=0;entryX=0;entryY=0.5;entryDx=0;entryDy=0;" edge="1" parent="WIyWlLk6GJQsqaUBKTNV-1" source="UJGWhKWExuoxYXBUKeyZ-86" target="UJGWhKWExuoxYXBUKeyZ-11">
          <mxGeometry relative="1" as="geometry">
            <Array as="points">
              <mxPoint x="-1270" y="1125" />
              <mxPoint x="-1270" y="840" />
            </Array>
          </mxGeometry>
        </mxCell>
        <mxCell id="UJGWhKWExuoxYXBUKeyZ-91" value="点击关闭按钮" style="edgeLabel;html=1;align=center;verticalAlign=middle;resizable=0;points=[];" vertex="1" connectable="0" parent="UJGWhKWExuoxYXBUKeyZ-90">
          <mxGeometry x="-0.0761" relative="1" as="geometry">
            <mxPoint as="offset" />
          </mxGeometry>
        </mxCell>
        <mxCell id="UJGWhKWExuoxYXBUKeyZ-86" value="显示文字介绍和产品应用" style="rounded=1;whiteSpace=wrap;html=1;" vertex="1" parent="WIyWlLk6GJQsqaUBKTNV-1">
          <mxGeometry x="-1198.5" y="1095" width="120" height="60" as="geometry" />
        </mxCell>
        <mxCell id="UJGWhKWExuoxYXBUKeyZ-89" style="edgeStyle=orthogonalEdgeStyle;rounded=0;orthogonalLoop=1;jettySize=auto;html=1;exitX=1;exitY=0.5;exitDx=0;exitDy=0;entryX=1;entryY=0.5;entryDx=0;entryDy=0;" edge="1" parent="WIyWlLk6GJQsqaUBKTNV-1" source="UJGWhKWExuoxYXBUKeyZ-63" target="UJGWhKWExuoxYXBUKeyZ-86">
          <mxGeometry relative="1" as="geometry" />
        </mxCell>
      </root>
    </mxGraphModel>
  </diagram>
</mxfile>
